<?xml version="1.0" standalone="no"?>
<!DOCTYPE svg PUBLIC "-//W3C//DTD SVG 20010904//EN"
 "http://www.w3.org/TR/2001/REC-SVG-20010904/DTD/svg10.dtd">
<svg version="1.0" xmlns="http://www.w3.org/2000/svg"
 width="1107.000000pt" height="1212.000000pt" viewBox="0 0 1107.000000 1212.000000"
 preserveAspectRatio="xMidYMid meet">

<g transform="translate(0.000000,1212.000000) scale(0.100000,-0.100000)"
fill="#000000" stroke="none">
<path d="M5465 8181 c-79 -10 -131 -28 -182 -63 -51 -34 -70 -60 -84 -112 -18
-65 -3 -122 41 -165 53 -52 98 -62 295 -71 195 -8 229 -19 243 -73 16 -58 -11
-112 -73 -145 -45 -25 -261 -24 -333 2 -62 21 -122 69 -122 97 0 46 -28 3 -77
-117 -2 -7 11 -14 34 -17 21 -2 67 -17 103 -33 63 -28 70 -29 226 -29 l161 0
69 35 c89 46 127 102 127 188 0 68 -20 111 -68 148 -51 38 -130 54 -280 54
-71 0 -146 5 -166 10 -117 33 -100 142 29 190 48 18 73 21 157 18 119 -4 185
-30 212 -82 l16 -31 33 70 c18 39 33 75 33 80 1 6 -16 11 -36 11 -21 0 -65 7
-98 16 -75 21 -182 28 -260 19z"/>
<path d="M6400 8179 c-121 -20 -228 -96 -277 -198 -25 -51 -28 -66 -28 -166 0
-102 2 -114 29 -168 58 -114 164 -182 307 -196 243 -25 412 57 475 231 21 58
20 199 -1 263 -41 121 -144 206 -282 230 -88 16 -143 17 -223 4z m263 -113
c68 -33 112 -84 132 -150 46 -153 -18 -315 -143 -363 -58 -22 -218 -25 -276
-4 -62 22 -133 94 -151 154 -42 142 6 301 109 354 100 52 234 56 329 9z"/>
<path d="M2643 8162 c15 -17 17 -56 17 -353 0 -247 -3 -338 -12 -347 -9 -9 4
-12 62 -12 58 0 71 3 62 12 -9 9 -12 88 -12 297 1 260 2 284 16 266 9 -11 74
-137 146 -280 71 -143 133 -263 137 -268 4 -4 72 121 150 278 79 157 147 285
152 285 5 0 9 -125 9 -277 0 -243 -2 -279 -17 -295 -15 -17 -13 -18 72 -18 85
0 87 1 72 18 -15 17 -17 55 -17 345 0 276 2 328 15 341 8 8 15 17 15 20 0 3
-52 6 -117 6 -111 0 -115 -1 -100 -18 16 -17 14 -24 -27 -103 -128 -243 -195
-364 -202 -363 -11 2 -26 28 -140 255 -70 139 -93 194 -85 202 23 23 8 27
-101 27 -107 0 -110 -1 -95 -18z"/>
<path d="M4021 8162 c14 -22 15 -19 -223 -537 -33 -71 -66 -137 -74 -146 -8
-8 -14 -19 -14 -22 0 -4 33 -7 74 -7 69 0 74 1 69 20 -6 24 42 150 65 168 11
8 67 12 197 12 209 0 196 5 241 -99 23 -52 25 -66 16 -82 -12 -18 -8 -19 79
-19 88 0 91 1 70 18 -31 25 -324 640 -325 680 l0 32 -93 0 c-87 0 -92 -1 -82
-18z m109 -148 c51 -100 127 -270 123 -276 -6 -11 -281 -10 -287 0 -8 13 127
313 139 309 5 -2 17 -17 25 -33z"/>
<path d="M4756 8153 c11 -23 14 -90 14 -350 0 -204 -4 -324 -10 -328 -24 -15
-5 -23 63 -28 83 -6 95 -2 72 23 -14 15 -15 57 -13 346 2 181 7 337 12 347 7
15 1 17 -72 17 l-81 0 15 -27z"/>
<path d="M7180 8171 c0 -5 6 -11 13 -13 18 -7 18 -668 -1 -691 -12 -13 -5 -16
55 -19 74 -4 92 2 68 22 -13 11 -15 53 -15 296 0 232 2 284 13 284 8 0 88 -84
178 -186 360 -410 341 -386 319 -399 -23 -14 2 -20 75 -17 57 3 74 7 66 15
-15 15 -16 683 -1 692 26 16 4 25 -61 25 -64 0 -70 -2 -63 -17 5 -10 10 -132
12 -270 3 -279 2 -284 -53 -214 -16 21 -109 127 -205 236 -213 240 -206 231
-190 250 11 13 -1 15 -99 15 -61 0 -111 -4 -111 -9z"/>
<path d="M4485 7095 c-434 -65 -764 -300 -896 -639 -82 -212 -77 -528 12 -736
153 -358 502 -571 1005 -612 127 -11 163 -10 277 5 214 27 413 92 666 216 68
34 134 61 147 61 28 0 54 10 54 20 0 5 -52 93 -115 197 -94 153 -120 188 -138
188 -19 0 -23 -6 -27 -53 -4 -41 -12 -59 -35 -82 -89 -88 -310 -176 -526 -210
-103 -17 -354 -8 -439 15 -210 56 -387 190 -470 355 -50 100 -64 163 -64 295
1 102 5 132 27 200 71 214 263 381 512 446 126 33 302 37 445 10 196 -38 378
-109 437 -173 11 -12 26 -42 32 -65 19 -72 37 -59 141 105 51 81 113 177 137
213 25 39 41 73 37 82 -9 23 -35 29 -54 12 -25 -22 -56 -19 -150 18 -149 59
-376 115 -550 136 -113 15 -354 12 -465 -4z"/>
<path d="M981 7072 c-14 -27 -1 -40 55 -57 100 -29 92 -21 465 -495 288 -366
319 -406 319 -419 0 -5 -109 -149 -242 -318 -134 -170 -288 -366 -343 -436
-106 -136 -147 -167 -217 -167 -37 0 -53 -17 -42 -44 4 -11 64 -14 322 -18
174 -2 327 -2 340 0 34 6 30 48 -7 67 -53 27 -49 71 11 149 97 125 381 477
390 482 5 4 18 -2 28 -12 38 -38 382 -490 401 -526 22 -44 13 -79 -28 -97 -17
-8 -23 -18 -21 -34 l3 -22 345 -5 c190 -3 356 -2 370 1 18 4 25 12 25 29 0 19
-9 26 -42 37 -50 17 -122 78 -165 142 -18 25 -82 109 -142 186 -369 468 -491
627 -494 638 -3 13 79 117 431 552 185 228 231 281 262 298 11 6 49 15 85 21
60 10 65 13 65 36 l0 25 -375 0 -375 0 0 -25 c0 -20 8 -27 45 -40 41 -14 45
-19 45 -47 0 -27 -35 -76 -199 -283 -109 -138 -203 -249 -210 -247 -19 6 -344
417 -367 464 -26 53 -17 83 29 107 32 17 45 38 36 61 -5 13 -59 15 -400 15
-369 0 -394 -1 -403 -18z"/>
<path d="M6357 7083 c-18 -17 -4 -44 33 -63 21 -11 44 -29 50 -39 16 -31 14
-1728 -3 -1761 -7 -14 -28 -30 -47 -36 -39 -13 -60 -38 -45 -53 8 -7 541 -18
603 -12 6 0 12 12 12 26 0 19 -9 28 -45 44 l-45 20 2 893 3 893 43 20 c36 17
42 24 40 45 l-3 25 -296 3 c-162 1 -298 -1 -302 -5z"/>
<path d="M7377 7083 c-4 -3 -7 -17 -7 -30 0 -19 10 -28 48 -44 26 -11 58 -30
71 -42 25 -24 70 -109 130 -246 21 -47 137 -300 258 -561 121 -261 266 -576
323 -699 l103 -224 -23 -42 c-42 -77 -47 -75 270 -75 l280 0 0 28 c0 15 -7 36
-15 46 -8 11 -15 30 -15 43 0 12 47 125 104 250 57 125 146 323 199 438 287
633 458 1001 480 1034 16 23 43 47 72 60 37 17 46 26 43 44 l-3 22 -322 3
-323 2 0 -29 c0 -23 5 -30 28 -36 46 -11 72 -33 72 -61 0 -14 -91 -222 -202
-462 -111 -241 -231 -502 -268 -582 -79 -170 -118 -250 -125 -250 -3 0 -26 44
-51 98 -144 302 -231 489 -274 582 -26 58 -94 202 -150 320 -56 118 -106 230
-112 249 -13 46 -3 78 31 95 31 17 43 38 35 61 -5 13 -51 15 -328 15 -178 0
-326 -3 -329 -7z"/>
<path d="M3757 4822 c-12 -2 -16 -9 -13 -19 3 -8 6 -104 6 -214 l0 -199 138 0
c160 0 200 9 252 56 45 41 63 88 63 164 0 96 -45 165 -128 195 -37 13 -273 26
-318 17z m290 -63 c69 -26 100 -92 88 -188 -6 -44 -14 -62 -40 -88 l-33 -33
-121 0 -121 0 0 160 0 160 99 0 c55 0 112 -5 128 -11z"/>
<path d="M4359 4823 c0 -4 -1 -104 -2 -221 l-2 -213 40 3 c37 3 40 5 35 28 -3
14 -5 95 -5 180 0 85 2 171 5 190 5 34 4 35 -32 38 -21 2 -38 0 -39 -5z"/>
<path d="M4738 4817 c-88 -25 -142 -81 -157 -163 -20 -108 16 -189 105 -234
41 -21 63 -25 134 -25 78 0 92 3 155 35 l70 35 -2 70 c-1 50 -5 71 -15 72 -7
1 -52 4 -100 6 l-88 3 0 -34 0 -33 53 6 c62 7 80 -2 75 -41 -5 -42 -53 -63
-149 -64 -63 0 -82 4 -110 23 -50 33 -71 80 -67 148 7 99 65 149 175 149 64 0
134 -26 152 -57 10 -17 13 -16 36 12 14 17 25 35 25 40 0 16 -125 57 -188 61
-31 2 -78 -2 -104 -9z"/>
<path d="M5225 4823 c-6 -5 -10 -91 -10 -221 l0 -212 40 0 40 0 -2 217 -2 218
-28 3 c-15 1 -32 -1 -38 -5z"/>
<path d="M5440 4795 l0 -30 85 4 85 3 0 -191 0 -191 40 0 40 0 0 191 0 190 83
-2 82 -2 3 29 3 29 -211 0 -210 0 0 -30z"/>
<path d="M6143 4823 c-24 -3 -33 -9 -33 -23 0 -19 -91 -228 -149 -343 -32 -63
-28 -71 26 -65 16 2 27 8 25 16 -3 19 35 89 53 96 21 8 172 8 201 0 22 -6 54
-61 54 -94 0 -17 7 -20 40 -20 22 0 40 3 40 6 0 4 -32 72 -71 153 -40 80 -84
175 -99 211 -28 67 -32 70 -87 63z m68 -168 c21 -47 39 -88 39 -90 0 -3 -38
-5 -85 -5 -47 0 -85 4 -85 9 0 4 13 37 28 72 16 35 32 72 35 82 12 33 29 16
68 -68z"/>
<path d="M6570 4822 l-25 -3 2 -212 2 -212 191 -3 190 -2 0 30 0 29 -156 3
-157 3 -1 170 c0 94 2 176 4 184 5 14 -10 19 -50 13z"/>
</g>
</svg>
